<svg version="1.0" xmlns="http://www.w3.org/2000/svg"
     width="1300.000000pt" height="351.000000pt" viewBox="0 0 1300.000000 351.000000"
>

    <g transform="translate(0.000000,351.000000) scale(0.100000,-0.100000)">
        <path d="M11020 3330 c-666 -46 -1958 -111 -2780 -140 -1750 -62 -2971 -47
-5095 60 -378 19 -488 26 -1210 71 -210 13 -374 19 -430 15 -627 -46 -1171
-466 -1374 -1062 -62 -182 -75 -267 -75 -499 0 -180 3 -225 22 -312 42 -192
138 -423 247 -590 72 -110 268 -311 384 -393 98 -70 288 -166 405 -204 216
-71 396 -87 716 -62 2127 162 4487 215 6595 146 782 -26 1640 -69 2085 -105
473 -39 746 -56 857 -56 276 3 588 104 833 272 116 79 349 316 424 431 107
164 184 351 228 552 19 87 23 131 22 311 0 180 -3 225 -23 315 -78 360 -263
665 -550 904 -257 214 -581 340 -926 359 -49 2 -209 -4 -355 -13z m530 -187
c237 -39 509 -169 685 -328 l50 -45 -1155 -1155 -1155 -1155 -50 5 c-160 17
-1429 67 -2155 86 -549 14 -2029 14 -2600 0 -1177 -30 -2482 -92 -3300 -158
-113 -9 -251 -16 -307 -16 -192 3 -394 53 -577 145 -96 48 -234 137 -258 165
-9 12 200 226 1175 1201 l1186 1186 493 -22 c1884 -85 3237 -96 4843 -37 924
34 2158 98 2700 140 187 14 281 12 425 -12z m-9830 -1 c0 -4 -338 -345 -751
-757 l-751 -750 5 165 c8 241 48 397 153 601 138 266 369 491 639 619 96 45
219 86 312 104 43 8 87 17 98 19 36 8 295 7 295 -1z m833 -41 l67 -6 -1068
-1068 -1069 -1069 -48 73 c-27 41 -64 107 -83 148 l-34 74 934 934 933 934
150 -6 c83 -4 180 -10 218 -14z m10011 -725 c24 -50 52 -117 62 -149 l18 -58
-880 -880 -880 -880 -195 11 c-107 6 -205 13 -218 16 -22 5 93 123 999 1029
791 791 1027 1022 1037 1013 7 -6 33 -52 57 -102z m122 -812 c-30 -200 -111
-408 -226 -580 -117 -175 -356 -380 -548 -471 -163 -76 -387 -133 -526 -133
l-61 0 685 685 685 685 3 -43 c2 -24 -4 -88 -12 -143z"/>
        <path d="M3044 2080 c-12 -4 -31 -21 -43 -36 -65 -82 34 -198 129 -149 113 58
32 233 -86 185z"/>
        <path d="M3395 2078 c-53 -29 -72 -103 -39 -153 19 -29 72 -48 108 -39 35 9
76 59 76 94 0 81 -79 135 -145 98z"/>
        <path d="M3734 2056 c-58 -58 -38 -140 40 -166 78 -25 151 48 126 126 -26 78
-108 98 -166 40z"/>
        <path d="M9094 2080 c-62 -25 -82 -107 -39 -158 32 -38 72 -48 118 -28 42 17
57 41 57 91 0 47 -13 71 -50 90 -32 17 -54 18 -86 5z"/>
        <path d="M9441 2076 c-48 -27 -66 -100 -35 -145 21 -29 74 -52 105 -44 44 11
79 53 79 96 0 49 -13 73 -50 92 -35 18 -67 19 -99 1z"/>
        <path d="M9814 2080 c-58 -23 -82 -105 -44 -153 49 -63 146 -52 176 18 35 85
-48 169 -132 135z"/>
        <path d="M3052 1648 c-20 -5 -40 -21 -53 -41 -60 -97 62 -205 149 -132 38 32
48 72 29 118 -22 51 -66 71 -125 55z"/>
        <path d="M3396 1645 c-16 -8 -35 -23 -42 -33 -16 -20 -18 -86 -4 -113 12 -22
61 -49 89 -49 87 0 132 105 74 170 -34 37 -78 46 -117 25z"/>
        <path d="M3764 1646 c-101 -44 -73 -196 37 -196 28 0 77 27 89 49 26 50 4 122
-45 146 -39 18 -41 18 -81 1z"/>
        <path d="M9090 1642 c-68 -34 -80 -104 -26 -158 40 -40 75 -44 122 -15 69 42
63 146 -10 176 -44 19 -44 19 -86 -3z"/>
        <path d="M9443 1646 c-38 -17 -53 -43 -53 -91 0 -47 14 -71 52 -91 98 -50 195
74 121 156 -33 36 -76 45 -120 26z"/>
        <path d="M9814 1646 c-59 -26 -80 -86 -50 -145 25 -48 83 -63 136 -36 35 18
50 43 50 84 0 78 -67 126 -136 97z"/>
    </g>
</svg>
