<?xml version="1.0" standalone="no"?>
<!DOCTYPE svg PUBLIC "-//W3C//DTD SVG 20010904//EN"
 "http://www.w3.org/TR/2001/REC-SVG-20010904/DTD/svg10.dtd">
<svg version="1.0" xmlns="http://www.w3.org/2000/svg"
 width="1010.000000pt" height="299.000000pt" viewBox="0 0 1010.000000 299.000000"
 preserveAspectRatio="xMidYMid meet">

<g transform="translate(0.000000,299.000000) scale(0.100000,-0.100000)"
fill="#000000" stroke="none">
<path d="M3152 2970 c-27 -26 -28 -61 -2 -85 10 -9 111 -45 222 -79 l203 -61
0 -40 0 -39 -1701 3 c-1879 3 -1725 8 -1790 -61 -42 -44 -74 -109 -74 -150 0
-18 12 -57 27 -86 l27 -53 -27 -55 c-32 -65 -34 -104 -6 -164 25 -56 62 -96
114 -122 l40 -21 1698 7 1698 8 -3 -43 -3 -43 -90 -27 c-49 -15 -142 -42 -205
-60 -63 -19 -123 -42 -132 -51 -36 -36 -10 -98 41 -98 38 0 475 131 494 147
13 13 17 33 17 96 l0 80 1193 -7 c655 -4 1206 -8 1222 -11 17 -2 325 -6 685
-9 1093 -10 1625 -16 1845 -21 116 -3 391 -5 612 -5 325 -1 414 2 467 14 153
36 267 115 322 223 27 53 29 67 29 163 0 87 -4 113 -22 152 -48 104 -158 186
-303 225 -53 15 -107 18 -300 18 -293 0 -1908 -16 -1950 -20 -16 -1 -403 -6
-860 -10 -457 -4 -845 -9 -863 -10 -17 -2 -492 -7 -1054 -11 l-1023 -7 0 76
c0 61 -4 81 -18 95 -15 15 -468 162 -499 162 -5 0 -19 -9 -31 -20z m6548 -390
c83 -15 176 -65 211 -112 84 -117 55 -274 -64 -353 -102 -66 -129 -70 -537
-70 -464 0 -1968 14 -2080 20 -47 2 -436 7 -865 11 -429 3 -782 8 -784 10 -2
2 -1 10 2 19 5 13 33 15 183 15 l176 0 34 34 c29 29 34 42 35 82 7 275 5 277
-253 282 -146 3 -178 6 -178 18 0 12 39 14 238 15 130 0 244 2 252 4 8 1 395
6 860 10 465 4 852 9 860 10 8 1 395 6 860 10 465 4 846 8 848 10 6 5 148 -5
202 -15z m-6128 -46 c4 -3 8 -10 8 -16 0 -7 -50 -8 -157 -4 -87 4 -180 7 -208
7 -251 1 -279 -4 -320 -52 -24 -29 -25 -36 -25 -156 l0 -125 33 -32 32 -33
156 -6 c85 -4 182 -5 215 -2 211 17 297 13 268 -15 -14 -12 -3362 -22 -3385
-9 -10 5 -28 27 -39 49 l-20 39 25 43 c34 59 34 127 0 191 -28 51 -25 66 19
116 l21 24 1685 -7 c926 -4 1688 -10 1692 -12z m1906 4 c-4 -10 -56 -14 -216
-18 -194 -5 -213 -7 -239 -26 -38 -28 -52 -73 -52 -174 -1 -112 12 -156 52
-180 29 -18 52 -20 238 -20 172 0 208 -2 212 -15 5 -12 -107 -14 -881 -12
-832 2 -887 3 -890 20 -3 15 9 17 143 17 227 0 249 17 249 185 0 80 -4 108
-17 129 -32 49 -53 55 -187 57 -152 2 -190 7 -190 25 0 12 119 14 743 16 408
2 809 4 890 6 118 2 148 0 145 -10z m-2448 -223 c0 -68 -2 -75 -20 -75 -18 0
-20 7 -20 75 0 68 2 75 20 75 18 0 20 -7 20 -75z m251 68 c6 -42 3 -121 -4
-130 -6 -8 -32 -13 -63 -13 l-54 0 0 75 0 75 60 0 c33 0 60 -3 61 -7z m173
-15 c3 -13 4 -43 3 -68 -2 -38 -5 -45 -24 -48 -22 -3 -23 0 -23 67 0 64 2 71
20 71 12 0 21 -8 24 -22z m1716 -53 l0 -75 -35 0 -35 0 0 75 0 75 35 0 35 0 0
-75z m298 3 l-3 -73 -82 -3 -83 -3 0 76 0 75 85 0 86 0 -3 -72z m222 48 c31
-10 35 -16 38 -47 3 -36 2 -37 -44 -53 -26 -9 -58 -16 -71 -16 -22 0 -23 3
-23 71 l0 71 33 -7 c17 -4 48 -13 67 -19z m200 -51 c0 -68 -2 -75 -20 -75 -18
0 -20 7 -20 75 0 68 2 75 20 75 18 0 20 -7 20 -75z m-2122 45 c78 -48 12 -110
-118 -110 l-70 0 0 65 0 65 78 0 c59 0 85 -5 110 -20z m200 -42 c-3 -53 -6
-63 -21 -63 -16 0 -19 9 -20 63 -2 59 -1 62 21 62 22 0 23 -3 20 -62z"/>
<path d="M3170 1343 c-41 -14 -53 -69 -21 -97 10 -9 110 -45 222 -79 l204 -62
0 -40 0 -40 -175 2 c-96 1 -862 2 -1701 3 -1685 2 -1551 7 -1615 -62 -42 -44
-74 -109 -74 -150 0 -18 12 -57 27 -86 l27 -53 -27 -55 c-15 -30 -27 -69 -27
-87 0 -46 41 -128 81 -161 74 -63 -56 -59 1794 -55 l1690 4 0 -39 0 -39 -130
-39 c-276 -82 -294 -88 -305 -108 -23 -43 2 -90 49 -90 12 0 124 30 249 66
157 46 232 72 245 86 13 15 17 38 17 96 l0 75 1208 -6 c664 -4 1216 -9 1227
-11 11 -2 407 -7 880 -11 473 -4 867 -9 875 -10 8 -2 407 -6 885 -10 770 -6
878 -5 942 9 157 34 277 115 330 225 25 50 28 67 28 156 0 122 -19 179 -83
247 -55 59 -123 99 -222 130 -71 22 -90 23 -345 23 -366 0 -1548 -13 -2765
-30 -815 -11 -1826 -20 -2370 -20 l-585 0 -5 78 c-4 59 -9 82 -22 91 -15 11
-478 158 -489 155 -2 0 -11 -3 -19 -6z m6555 -408 c169 -45 253 -153 231 -300
-11 -68 -60 -133 -132 -172 -116 -63 -148 -66 -719 -59 -280 3 -735 8 -1010
11 -275 3 -612 7 -750 10 -137 3 -587 8 -1000 11 -412 4 -754 10 -759 14 -25
24 13 30 176 30 242 0 254 10 251 206 -2 182 -18 194 -268 194 -140 0 -165 2
-165 15 0 13 30 15 208 16 114 0 214 2 222 4 8 1 400 6 870 10 470 4 862 9
870 10 8 1 395 6 860 10 465 4 847 9 849 11 10 9 211 -7 266 -21z m-6712 -33
c511 -2 567 -4 567 -18 0 -14 -17 -15 -152 -9 -308 13 -449 10 -494 -11 -54
-26 -64 -56 -64 -191 0 -116 1 -120 28 -153 l29 -34 144 -8 c79 -4 180 -6 224
-3 44 2 123 7 176 11 69 4 99 2 104 -6 4 -7 3 -15 -1 -20 -5 -4 -766 -10
-1691 -13 -1655 -5 -1681 -5 -1702 14 -11 11 -28 33 -36 49 -14 27 -13 31 10
72 33 58 34 127 1 188 -26 49 -23 76 17 118 l21 23 1126 -3 c619 -2 1380 -4
1693 -6z m2465 -4 c-4 -10 -56 -14 -216 -18 -194 -5 -213 -7 -239 -26 -42 -31
-55 -83 -51 -199 7 -170 15 -175 291 -175 172 0 206 -2 211 -15 5 -13 -99 -14
-882 -11 -798 4 -887 6 -890 20 -3 14 15 16 143 16 227 0 250 17 249 186 0 78
-4 108 -17 128 -32 48 -52 53 -217 60 -85 3 -156 6 -157 6 -2 0 -3 7 -3 15 0
13 89 15 723 17 397 2 798 4 890 6 135 2 168 0 165 -10z m-2448 -224 c0 -66
-2 -75 -17 -72 -15 3 -19 16 -21 76 -3 67 -1 72 18 72 18 0 20 -6 20 -76z
m251 69 c1 -5 2 -34 3 -66 3 -67 -3 -72 -76 -76 l-48 -3 0 76 0 76 60 0 c33 0
61 -3 61 -7z m173 -15 c3 -13 4 -43 3 -68 -2 -38 -5 -45 -24 -48 -22 -3 -23 0
-23 67 0 64 2 71 20 71 12 0 21 -8 24 -22z m1716 -53 l0 -75 -35 0 -35 0 0 75
0 75 35 0 35 0 0 -75z m298 3 l-3 -73 -82 -3 -83 -3 0 76 0 75 85 0 86 0 -3
-72z m222 48 c31 -10 35 -16 38 -48 3 -37 3 -37 -49 -52 -89 -27 -89 -26 -89
55 l0 71 33 -7 c17 -4 48 -13 67 -19z m200 -51 c0 -68 -2 -75 -20 -75 -18 0
-20 7 -20 75 0 68 2 75 20 75 18 0 20 -7 20 -75z m-2122 45 c78 -48 12 -110
-118 -110 l-70 0 0 65 0 65 78 0 c59 0 85 -5 110 -20z m202 -40 c0 -56 -2 -60
-22 -60 -21 0 -23 5 -23 60 0 56 2 60 23 60 20 0 22 -4 22 -60z"/>
</g>
</svg>
